<svg xmlns="http://www.w3.org/2000/svg" viewBox="0 0 560 680" width="560" height="680">
  <path class="de-state" id="DE-BW" data-state-id="DE-BW" data-state-name="Baden-Württemberg" d="M234.37,418.68 L233.63,423.55 L235.58,423.96 L238.07,421.62 L239.15,423.94 L242.61,421.59 L244.94,423.05 L244.73,425.79 L247.42,428.50 L244.30,431.48 L246.58,432.09 L249.73,429.75 L248.81,431.23 L250.43,431.21 L250.91,435.61 L255.43,435.57 L258.21,431.98 L259.25,434.07 L261.52,434.05 L260.01,437.62 L263.98,440.50 L260.77,441.37 L261.79,443.03 L260.51,443.67 L262.79,444.27 L263.42,446.87 L260.95,448.25 L262.25,448.45 L261.66,451.37 L269.19,454.62 L266.31,457.15 L268.92,457.54 L268.97,460.45 L274.84,461.01 L280.69,466.22 L279.09,467.88 L280.67,468.73 L279.07,471.23 L280.33,473.34 L278.09,475.41 L282.85,480.28 L278.06,481.70 L279.66,479.83 L277.75,479.60 L274.54,482.08 L273.91,479.98 L270.03,479.14 L269.06,481.44 L272.93,484.58 L271.32,484.77 L272.27,489.39 L267.45,489.98 L268.09,491.03 L264.29,492.99 L256.34,493.16 L256.68,494.83 L252.59,497.65 L258.07,503.24 L259.09,508.94 L262.29,513.57 L262.02,518.23 L258.91,521.66 L260.49,522.91 L260.20,526.09 L258.63,526.75 L261.78,529.69 L258.04,531.42 L260.85,532.88 L261.49,537.76 L258.97,537.81 L258.34,539.95 L255.56,536.96 L252.18,539.08 L245.35,537.65 L239.83,541.71 L229.66,542.90 L225.79,539.16 L215.35,537.77 L199.96,529.45 L207.51,534.32 L210.01,538.27 L206.78,539.10 L196.99,533.74 L198.04,534.75 L194.14,534.66 L197.83,536.74 L191.33,539.00 L189.18,537.38 L190.33,536.03 L186.59,534.10 L184.49,535.34 L186.02,537.60 L182.03,536.64 L182.18,532.71 L179.90,532.89 L177.97,530.46 L176.46,532.72 L175.90,530.56 L173.00,529.97 L173.43,531.41 L167.56,532.49 L163.69,537.63 L167.50,539.67 L174.86,537.77 L176.42,539.22 L174.60,539.46 L173.91,542.12 L170.29,539.97 L166.73,541.83 L168.85,542.98 L165.55,543.76 L159.43,543.56 L157.24,541.35 L152.36,540.64 L145.72,544.24 L137.57,544.99 L134.54,542.50 L130.57,542.44 L121.99,545.70 L119.89,544.27 L122.58,543.79 L122.05,542.52 L118.49,543.22 L113.78,538.72 L115.65,526.20 L119.31,520.94 L116.27,517.38 L116.79,512.56 L121.80,506.90 L123.38,502.31 L126.29,500.73 L125.62,496.83 L129.69,490.31 L129.68,485.79 L139.05,476.54 L145.68,473.95 L151.94,465.15 L157.49,462.48 L161.29,457.06 L162.73,449.41 L168.61,445.62 L166.29,443.83 L168.80,442.28 L169.05,440.40 L167.12,440.47 L169.59,437.67 L166.02,437.17 L167.26,435.88 L164.50,431.39 L165.08,429.49 L174.30,432.93 L176.20,431.42 L174.80,427.93 L180.32,427.14 L179.41,429.86 L182.10,433.10 L191.91,433.71 L190.64,435.80 L187.70,435.65 L188.39,437.70 L186.13,438.99 L189.40,439.75 L194.92,436.57 L194.87,433.67 L205.03,433.19 L202.71,431.73 L203.65,429.64 L212.15,429.45 L215.32,425.47 L221.18,426.11 L221.73,422.33 L220.08,421.28 L218.17,422.75 L219.44,421.49 L214.89,420.85 L216.50,420.64 L215.82,419.17 L226.42,418.10 L230.02,420.62 L229.93,418.50 L234.37,418.68 Z M180.92,535.58 L181.72,536.66 L178.25,536.73 L180.92,535.58 Z"/>
  <path class="de-state" id="DE-BY" data-state-id="DE-BY" data-state-name="Bayern" d="M261.79,374.79 L265.79,374.57 L267.47,376.90 L273.14,377.96 L277.17,381.98 L276.52,383.67 L280.18,383.24 L282.20,385.99 L288.54,387.25 L288.92,393.19 L295.21,394.65 L295.87,391.90 L302.72,391.86 L294.88,387.67 L295.17,385.56 L301.36,383.87 L307.55,383.85 L310.83,386.57 L310.82,385.31 L313.43,386.56 L317.35,385.29 L319.97,387.38 L319.00,389.70 L325.20,390.94 L326.92,385.25 L325.00,378.93 L329.32,378.28 L330.67,376.38 L335.32,376.79 L334.61,380.38 L336.25,382.06 L338.26,381.42 L340.54,384.80 L344.56,383.10 L355.57,382.01 L357.84,383.70 L364.21,381.77 L366.74,383.66 L366.59,385.99 L374.74,388.22 L375.43,389.98 L372.52,391.50 L378.94,394.89 L378.95,399.64 L382.47,400.76 L382.18,402.45 L395.40,406.76 L394.64,409.39 L398.73,410.12 L396.10,415.13 L394.46,415.30 L394.43,417.88 L390.51,419.88 L392.83,422.61 L397.60,423.70 L397.46,426.84 L399.69,427.29 L401.01,431.86 L404.29,432.59 L403.55,435.49 L405.15,438.20 L410.75,440.01 L412.13,442.75 L421.71,442.96 L426.29,445.21 L426.53,447.53 L434.62,452.83 L434.60,454.52 L441.17,455.90 L447.28,459.78 L448.42,464.32 L452.55,466.11 L453.32,464.52 L457.77,464.50 L462.46,469.35 L467.00,469.83 L471.80,475.68 L469.03,478.51 L471.22,483.07 L470.33,485.92 L466.36,489.44 L452.92,485.60 L449.10,487.41 L450.17,490.16 L447.67,498.02 L440.59,502.13 L429.52,503.48 L416.91,507.89 L410.37,512.79 L424.45,527.83 L419.35,534.69 L425.25,534.78 L429.01,536.95 L430.37,539.91 L427.10,543.00 L427.43,548.10 L425.15,549.75 L422.67,549.11 L413.03,544.32 L411.98,543.18 L414.55,541.21 L411.40,539.58 L412.06,537.83 L401.99,537.64 L400.40,540.18 L396.36,540.50 L392.38,536.42 L382.33,537.81 L382.08,534.19 L377.54,536.53 L379.53,542.07 L368.61,540.90 L359.53,543.32 L347.02,542.23 L343.88,547.14 L335.74,547.06 L332.94,549.40 L334.98,550.89 L330.30,550.54 L326.46,553.99 L323.64,553.98 L324.88,551.51 L309.65,553.70 L306.76,549.05 L303.15,549.05 L306.31,546.90 L304.29,545.65 L297.99,546.89 L288.24,543.63 L286.04,545.77 L278.72,542.95 L278.77,547.94 L280.45,548.53 L280.95,551.61 L278.79,554.69 L276.32,554.87 L272.53,559.01 L263.85,560.86 L267.07,553.88 L259.64,556.04 L258.10,552.82 L259.58,552.43 L259.34,550.27 L254.05,548.59 L252.56,544.94 L247.03,546.07 L243.60,544.93 L242.94,542.30 L239.20,545.46 L232.43,543.58 L234.86,541.37 L240.44,541.49 L245.35,537.65 L252.18,539.08 L255.56,536.96 L258.34,539.95 L258.97,537.81 L261.49,537.76 L260.85,532.88 L258.04,531.42 L261.78,529.69 L258.63,526.75 L260.20,526.09 L260.49,522.91 L258.91,521.66 L262.02,518.23 L262.29,513.57 L259.09,508.94 L258.07,503.24 L252.59,497.65 L256.68,494.83 L256.34,493.16 L264.29,492.99 L268.09,491.03 L267.45,489.98 L272.27,489.39 L271.32,484.77 L272.93,484.58 L269.06,481.44 L270.03,479.14 L273.91,479.98 L274.54,482.08 L277.75,479.60 L279.66,479.83 L278.06,481.70 L282.85,480.28 L278.09,475.41 L280.33,473.34 L279.07,471.23 L280.67,468.73 L279.09,467.88 L280.69,466.22 L274.84,461.01 L268.97,460.45 L268.92,457.54 L266.31,457.15 L269.19,454.62 L261.66,451.37 L262.25,448.45 L260.95,448.25 L263.42,446.87 L262.79,444.27 L260.51,443.67 L261.79,443.03 L260.77,441.37 L263.98,440.50 L260.01,437.62 L261.52,434.05 L259.25,434.07 L258.21,431.98 L255.43,435.57 L251.88,435.81 L249.92,434.99 L249.73,429.75 L246.58,432.09 L244.30,431.48 L247.41,428.29 L243.26,421.58 L239.47,423.93 L238.07,421.62 L234.94,423.96 L233.29,423.13 L234.66,418.04 L229.93,418.50 L230.02,420.62 L226.42,418.10 L219.04,418.54 L214.89,420.85 L219.44,421.49 L217.50,421.90 L218.83,422.96 L220.73,421.49 L222.08,423.38 L221.18,426.11 L215.32,425.47 L210.85,429.86 L204.64,430.06 L201.66,428.40 L203.91,426.09 L202.87,423.39 L206.74,420.43 L204.11,419.62 L205.71,417.51 L203.43,417.74 L203.38,414.82 L200.09,414.66 L199.28,406.52 L201.25,406.28 L200.20,403.58 L197.19,403.01 L199.39,399.63 L205.32,398.89 L207.29,399.26 L207.09,400.95 L210.97,397.52 L218.87,398.49 L221.25,401.43 L226.93,400.74 L227.68,396.49 L226.05,396.08 L225.84,392.27 L234.93,392.83 L233.59,391.99 L234.50,390.71 L239.68,388.34 L239.80,382.36 L247.54,383.38 L251.86,382.07 L258.45,375.22 L261.79,374.79 Z"/>
  <path class="de-state" id="DE-BE" data-state-id="DE-BE" data-state-name="Berlin" d="M433.56,258.81 L436.65,259.49 L437.44,256.97 L439.85,257.22 L440.62,255.34 L445.38,257.30 L451.33,255.70 L450.32,255.06 L451.74,254.24 L454.41,256.17 L453.59,259.10 L462.04,262.59 L459.47,265.92 L467.97,267.73 L461.88,273.32 L461.29,271.20 L452.05,270.22 L451.43,268.74 L448.65,269.33 L448.91,271.23 L438.68,268.77 L432.40,270.57 L429.70,268.85 L434.39,263.87 L431.32,262.98 L433.56,258.81 Z"/>
  <path class="de-state" id="DE-BB" data-state-id="DE-BB" data-state-name="Brandenburg" d="M474.27,207.38 L476.42,211.95 L494.75,211.50 L494.48,214.84 L486.79,220.97 L495.76,221.15 L499.26,218.07 L504.95,217.33 L506.58,220.96 L501.94,225.57 L503.13,228.07 L501.88,231.46 L489.19,238.01 L489.95,242.63 L487.99,244.86 L500.48,249.46 L507.56,255.25 L517.36,259.63 L515.18,262.29 L516.92,264.22 L511.11,270.04 L514.26,274.88 L513.50,276.10 L520.80,278.85 L519.08,285.64 L523.16,288.37 L519.72,297.91 L514.30,301.77 L523.02,311.43 L523.08,315.02 L519.97,315.25 L518.86,318.01 L513.45,316.79 L500.51,320.85 L489.83,318.34 L486.31,321.09 L487.20,322.01 L483.94,322.01 L485.67,323.86 L481.97,328.03 L479.50,326.63 L468.59,328.74 L456.16,328.28 L448.29,323.51 L446.85,325.16 L443.50,324.27 L440.64,327.37 L437.62,326.69 L437.02,324.80 L435.32,324.98 L437.21,320.61 L435.97,317.65 L428.00,312.50 L435.67,308.63 L432.20,301.24 L433.63,299.79 L427.12,299.90 L427.53,298.23 L423.42,298.17 L422.80,296.28 L416.62,296.40 L416.34,294.51 L412.90,294.88 L406.47,292.07 L398.85,293.65 L394.81,290.66 L392.38,291.68 L380.21,283.15 L384.78,280.05 L382.06,278.34 L385.66,273.13 L384.30,272.28 L385.41,269.77 L383.69,269.12 L386.91,265.58 L381.43,263.00 L379.30,264.66 L377.58,264.01 L378.66,262.55 L376.22,262.94 L378.38,260.23 L377.76,257.28 L381.59,257.11 L381.33,253.74 L379.28,252.24 L380.07,248.88 L382.54,247.65 L381.24,244.05 L358.95,241.31 L357.93,240.24 L359.36,238.78 L350.28,237.22 L349.95,235.53 L346.80,235.29 L347.18,233.61 L340.50,233.34 L337.00,231.41 L330.65,232.84 L326.43,230.06 L333.49,229.70 L333.51,228.01 L341.61,228.92 L343.76,226.61 L343.08,223.86 L346.99,222.20 L358.26,223.14 L356.52,221.65 L369.26,218.81 L370.76,215.02 L377.41,216.78 L380.96,215.76 L382.66,217.69 L390.36,218.83 L393.08,221.82 L405.71,221.56 L406.01,223.04 L410.90,223.32 L409.80,224.78 L411.18,225.43 L423.10,224.75 L421.29,226.20 L423.36,226.87 L431.25,222.35 L434.77,221.77 L437.49,223.71 L441.51,220.18 L447.37,221.97 L449.27,219.05 L454.24,217.87 L455.54,213.27 L459.78,212.70 L464.63,208.58 L471.41,207.65 L468.64,206.75 L469.18,204.24 L470.79,206.58 L474.27,207.38 Z M451.74,254.24 L450.32,255.06 L451.33,255.70 L445.38,257.30 L440.62,255.34 L439.85,257.22 L437.44,256.97 L436.65,259.49 L432.15,259.42 L433.49,260.49 L431.32,262.98 L434.39,263.87 L430.02,269.48 L432.40,270.57 L441.77,269.02 L448.91,271.23 L448.65,269.33 L451.43,268.74 L452.05,270.22 L461.29,271.20 L461.88,273.32 L466.50,269.81 L467.66,267.10 L459.47,265.92 L462.04,262.59 L453.59,259.10 L454.41,256.17 L451.74,254.24 Z"/>
  <path class="de-state" id="DE-HB" data-state-id="DE-HB" data-state-name="Bremen" d="M196.64,228.53 L194.56,228.78 L197.07,230.22 L195.35,230.67 L196.50,232.98 L193.81,234.94 L189.89,233.32 L187.15,234.43 L184.61,232.58 L182.22,233.69 L176.24,226.43 L168.36,222.83 L174.68,223.50 L174.43,225.20 L187.80,226.37 L189.63,228.03 L194.47,226.87 L196.64,228.53 Z"/>
  <path class="de-state" id="DE-HH" data-state-id="DE-HH" data-state-name="Hamburg" d="M258.26,195.06 L265.46,193.78 L262.31,196.72 L267.13,199.84 L262.96,204.25 L272.99,210.49 L268.27,212.84 L264.25,212.66 L257.24,208.90 L253.97,211.46 L248.86,211.71 L249.56,209.80 L246.31,210.88 L240.78,206.48 L241.07,203.72 L238.52,203.52 L240.59,199.55 L244.30,202.03 L248.91,198.24 L258.32,196.73 L258.26,195.06 Z"/>
  <path class="de-state" id="DE-HE" data-state-id="DE-HE" data-state-name="Hessen" d="M225.76,313.43 L233.09,313.10 L236.55,316.18 L230.96,319.60 L234.04,322.47 L234.13,325.39 L229.90,326.96 L229.34,329.50 L238.94,332.19 L241.19,329.83 L239.23,330.92 L237.51,328.24 L243.95,325.68 L246.78,327.96 L246.04,325.67 L249.16,325.45 L252.69,333.02 L257.45,333.47 L258.50,336.43 L267.64,338.59 L266.35,342.58 L263.96,340.67 L261.27,341.28 L264.33,342.56 L262.69,346.13 L266.75,347.84 L263.07,349.50 L256.63,348.41 L255.30,350.30 L258.05,352.21 L251.27,352.18 L251.29,353.45 L253.65,352.82 L253.00,354.50 L255.02,353.67 L257.77,355.78 L255.41,356.82 L255.44,358.71 L251.37,359.33 L251.74,361.64 L249.71,362.69 L250.73,364.15 L247.00,369.58 L251.14,370.24 L251.44,367.93 L256.97,367.57 L259.08,370.11 L256.36,371.16 L257.77,374.37 L256.47,378.00 L252.19,381.86 L245.53,383.39 L240.46,381.93 L239.37,388.98 L234.50,390.71 L233.59,391.99 L234.93,392.83 L225.84,392.27 L226.05,396.08 L227.68,396.49 L226.93,400.74 L221.25,401.43 L218.87,398.49 L210.97,397.52 L207.09,400.95 L207.29,399.26 L205.32,398.89 L198.44,400.69 L197.20,403.43 L200.20,403.58 L201.25,406.28 L199.28,406.52 L200.09,414.66 L203.38,414.82 L203.43,417.74 L205.71,417.51 L204.11,419.62 L206.74,420.43 L202.87,423.39 L203.91,426.09 L201.64,427.36 L203.65,429.64 L202.71,431.73 L205.03,433.19 L194.87,433.67 L194.92,436.57 L187.12,439.79 L187.70,435.65 L190.64,435.80 L191.91,433.71 L182.10,433.10 L179.41,429.86 L180.32,427.14 L174.80,427.93 L176.20,431.42 L172.35,433.00 L163.06,427.68 L161.27,423.56 L168.31,419.16 L165.04,419.26 L162.64,416.20 L163.24,414.50 L160.56,412.70 L160.41,408.30 L156.36,405.05 L151.40,404.15 L134.37,407.65 L128.55,402.97 L133.36,398.69 L137.40,400.17 L137.65,398.04 L134.93,396.35 L136.18,394.43 L141.09,392.68 L143.46,393.93 L145.07,392.84 L143.67,390.74 L148.62,390.44 L145.44,384.76 L139.84,382.52 L142.44,380.56 L140.54,378.49 L141.36,376.14 L143.94,374.38 L149.93,374.71 L150.59,371.94 L147.48,367.66 L150.95,364.25 L148.22,361.07 L156.38,356.00 L162.33,357.26 L167.49,354.28 L167.29,351.34 L172.21,348.51 L170.09,347.07 L171.27,343.86 L182.41,343.22 L181.00,341.76 L185.24,337.65 L183.41,334.51 L174.87,335.31 L173.32,333.01 L180.66,327.99 L195.06,327.29 L195.68,324.95 L193.99,324.98 L192.50,322.05 L196.93,320.48 L203.49,321.00 L203.93,324.15 L210.44,323.18 L218.97,315.66 L216.95,314.44 L225.04,311.99 L225.76,313.43 Z"/>
  <path class="de-state" id="DE-MV" data-state-id="DE-MV" data-state-name="Mecklenburg-Vorpommern" d="M397.14,151.60 L404.83,153.96 L422.25,154.25 L413.18,155.92 L403.79,154.97 L400.38,156.19 L401.30,157.32 L392.38,157.59 L388.09,161.70 L389.38,163.23 L388.28,163.99 L393.76,164.98 L390.86,163.20 L398.02,159.86 L399.03,157.54 L401.23,158.80 L405.65,156.91 L404.95,155.92 L408.23,156.14 L407.63,156.68 L409.33,158.04 L412.30,156.60 L413.62,159.49 L425.50,154.17 L425.82,156.58 L429.69,158.27 L428.68,159.48 L430.38,163.09 L440.63,165.73 L444.03,168.84 L442.42,170.01 L447.97,169.14 L446.08,171.00 L447.72,170.19 L450.30,173.93 L452.79,174.24 L452.13,172.05 L463.89,169.33 L470.16,173.22 L466.60,177.41 L476.24,183.48 L471.17,186.66 L477.56,184.27 L475.77,179.65 L479.14,179.63 L478.82,182.82 L480.18,181.19 L483.52,182.36 L483.77,179.27 L479.64,175.46 L476.05,175.43 L476.81,177.06 L473.31,179.11 L474.25,176.80 L473.06,176.32 L468.01,177.99 L470.47,173.46 L466.88,170.05 L469.97,168.95 L473.78,173.31 L481.91,175.99 L493.67,183.04 L491.68,183.86 L493.44,186.71 L483.30,186.25 L475.36,188.17 L470.13,187.12 L483.30,192.96 L497.14,193.85 L493.32,195.94 L496.61,196.13 L497.52,199.85 L499.54,200.71 L498.28,205.02 L502.42,209.74 L504.70,217.09 L499.26,218.07 L495.76,221.15 L486.79,220.97 L494.48,214.84 L494.75,211.50 L476.42,211.95 L474.28,207.28 L470.79,206.58 L469.18,204.24 L468.64,206.75 L471.41,207.65 L464.63,208.58 L459.78,212.70 L455.54,213.27 L454.24,217.87 L449.27,219.05 L447.37,221.97 L441.51,220.18 L437.49,223.71 L434.77,221.77 L431.25,222.35 L423.36,226.87 L421.29,226.20 L423.10,224.75 L411.18,225.43 L409.80,224.78 L410.90,223.32 L406.01,223.04 L405.71,221.56 L393.08,221.82 L390.36,218.83 L382.66,217.69 L380.96,215.76 L377.41,216.78 L370.76,215.02 L369.26,218.81 L365.00,220.67 L361.84,220.22 L360.40,221.90 L356.52,221.65 L358.26,223.14 L353.32,223.73 L346.99,222.20 L342.37,224.27 L343.76,226.61 L341.61,228.92 L333.51,228.01 L332.79,229.69 L321.49,228.12 L322.21,225.59 L314.82,222.76 L310.59,216.81 L306.34,215.88 L301.78,218.26 L294.37,214.28 L288.09,214.61 L290.47,209.42 L300.96,206.46 L300.91,202.88 L306.58,202.60 L307.91,197.36 L297.18,193.17 L296.41,188.12 L297.76,185.82 L303.85,183.17 L305.32,184.67 L308.87,184.12 L304.56,183.39 L304.95,181.57 L321.09,178.18 L325.60,179.93 L325.60,182.82 L329.94,181.43 L336.72,184.72 L338.36,180.86 L336.09,181.32 L336.15,179.24 L335.21,181.29 L332.94,181.04 L332.37,179.22 L338.86,177.77 L337.44,180.55 L338.74,180.88 L340.38,177.25 L343.40,177.22 L346.43,173.99 L345.17,173.25 L341.13,176.29 L340.72,175.00 L349.64,170.38 L359.35,170.84 L372.62,168.68 L372.87,170.45 L374.73,170.56 L375.74,169.30 L373.06,168.81 L386.89,162.17 L397.14,151.60 Z M448.73,140.24 L445.70,143.04 L448.25,146.29 L462.94,147.16 L462.31,149.54 L456.70,152.88 L458.97,156.11 L462.59,156.34 L467.89,159.70 L465.05,161.48 L465.53,163.56 L461.05,162.25 L464.33,160.57 L459.03,161.13 L463.13,159.26 L459.19,160.31 L457.33,159.05 L450.18,160.03 L446.77,163.69 L444.38,163.78 L448.10,164.62 L446.71,166.54 L440.85,164.82 L442.61,165.17 L443.40,163.29 L439.68,164.68 L435.71,163.75 L435.40,162.24 L432.28,163.06 L434.86,162.00 L430.89,160.25 L431.61,158.01 L439.24,157.35 L436.37,154.69 L432.87,154.74 L439.59,151.88 L437.29,151.51 L437.44,150.09 L433.38,150.48 L432.53,148.05 L438.86,147.76 L441.70,149.91 L441.26,147.74 L445.29,146.21 L443.56,147.94 L445.80,147.36 L447.81,151.06 L453.11,151.79 L452.86,147.96 L446.84,146.57 L445.39,144.21 L438.17,147.38 L440.44,142.41 L433.51,147.36 L438.55,141.64 L448.73,140.24 Z M434.83,151.03 L437.26,152.48 L431.24,153.98 L434.83,151.03 Z M432.12,144.75 L433.35,146.21 L430.67,145.96 L431.02,148.57 L427.99,153.11 L429.91,145.58 L432.12,144.75 Z"/>
  <path class="de-state" id="DE-NI" data-state-id="DE-NI" data-state-name="Niedersachsen" d="M179.36,185.20 L183.68,188.00 L190.87,188.84 L198.40,188.38 L202.94,185.66 L213.82,186.48 L226.23,196.04 L228.51,200.39 L241.07,203.72 L240.78,206.48 L246.31,210.88 L248.46,209.17 L249.93,210.43 L248.86,211.71 L253.24,211.68 L257.24,208.90 L264.25,212.66 L272.99,210.70 L287.06,214.82 L294.37,214.28 L301.78,218.26 L307.05,215.90 L310.59,216.81 L314.82,222.76 L322.21,225.59 L321.49,228.12 L326.09,228.58 L329.59,232.41 L337.00,231.41 L345.06,234.01 L342.93,236.11 L340.12,235.87 L339.72,239.25 L329.16,242.97 L313.30,240.73 L310.49,241.11 L307.66,244.23 L297.66,244.24 L299.34,251.66 L301.40,251.49 L306.45,258.11 L309.68,257.26 L307.18,260.43 L311.50,264.63 L307.96,264.62 L307.31,266.49 L315.39,271.35 L310.22,273.41 L316.13,279.73 L312.06,281.37 L314.79,283.06 L313.79,284.93 L308.05,286.55 L309.50,289.28 L293.44,289.54 L286.16,291.97 L291.38,294.77 L288.95,295.81 L291.39,297.94 L286.92,300.97 L286.96,304.86 L290.06,306.29 L294.20,312.75 L290.50,314.13 L291.91,317.61 L288.52,316.56 L283.82,318.03 L275.66,316.06 L274.05,319.66 L267.70,322.57 L265.33,321.92 L262.34,324.23 L263.37,324.87 L257.29,324.41 L250.98,327.75 L249.16,325.45 L246.04,325.67 L246.78,327.96 L243.95,325.68 L237.51,328.24 L239.23,330.92 L241.19,329.83 L238.94,332.19 L229.34,329.50 L229.90,326.96 L234.13,325.39 L234.04,322.47 L230.96,319.60 L236.55,316.18 L233.09,313.10 L219.16,312.52 L220.67,309.56 L219.54,306.25 L223.06,304.30 L222.26,301.59 L223.90,300.73 L216.82,300.83 L217.38,298.49 L213.22,296.65 L213.45,294.32 L207.63,293.77 L208.94,292.69 L207.47,290.60 L208.40,288.47 L205.26,287.25 L206.55,285.54 L198.63,285.03 L196.74,281.46 L200.21,282.25 L199.76,279.93 L201.80,279.48 L195.46,276.62 L204.44,269.70 L202.96,267.39 L205.28,265.45 L202.81,264.22 L200.38,264.05 L194.09,269.66 L189.29,270.37 L181.00,270.09 L180.68,263.96 L177.82,262.32 L169.57,263.32 L165.28,266.99 L157.99,266.29 L158.52,269.44 L165.91,271.84 L167.44,274.56 L166.07,280.50 L170.28,281.91 L163.67,286.24 L156.05,284.89 L151.86,288.34 L142.58,288.66 L139.27,290.47 L134.26,287.64 L141.26,286.00 L141.75,282.72 L135.09,281.23 L138.17,276.84 L136.69,275.19 L140.08,274.85 L137.21,271.61 L124.82,269.73 L123.32,266.65 L118.80,265.53 L116.81,268.07 L118.56,268.65 L117.29,271.19 L100.95,277.54 L87.99,278.72 L85.70,275.83 L88.50,270.82 L84.37,265.90 L81.21,267.74 L67.77,265.05 L66.07,260.99 L70.87,260.47 L68.37,259.03 L69.48,255.82 L86.95,256.46 L89.36,244.51 L98.84,235.94 L98.57,230.22 L96.89,228.74 L100.62,226.56 L100.15,224.48 L99.46,222.54 L95.66,222.25 L98.15,217.09 L85.54,216.73 L83.93,215.31 L86.83,207.00 L85.95,205.55 L91.59,205.60 L89.13,203.10 L92.98,200.18 L101.99,197.03 L114.09,197.71 L141.64,195.49 L143.28,199.39 L147.00,199.36 L150.53,204.34 L149.55,206.66 L144.41,207.10 L144.92,209.43 L155.06,213.17 L158.69,209.35 L158.69,206.19 L153.83,206.28 L156.17,201.21 L170.03,204.25 L172.33,205.98 L170.22,207.38 L173.12,206.41 L168.17,196.42 L172.40,188.49 L179.36,185.20 Z M170.21,224.68 L176.24,226.43 L182.22,233.69 L184.61,232.58 L187.15,234.43 L189.89,233.32 L193.81,234.94 L196.50,232.98 L195.35,230.67 L197.07,230.22 L194.56,228.78 L196.64,228.53 L194.47,226.87 L189.63,228.03 L187.80,226.37 L174.43,225.20 L174.68,223.50 L168.36,222.83 L170.21,224.68 Z M169.02,182.97 L169.97,183.78 L168.39,183.95 L169.02,182.97 Z M141.26,191.23 L142.02,193.55 L140.03,192.11 L141.26,191.23 Z M134.83,190.76 L138.93,191.85 L132.03,191.17 L134.83,190.76 Z M124.08,191.58 L129.72,191.86 L121.85,192.76 L124.08,191.58 Z M116.55,192.84 L119.61,193.34 L110.53,194.56 L111.51,192.98 L116.55,192.84 Z M106.37,194.13 L108.39,194.67 L104.45,194.57 L106.37,194.13 Z M101.96,194.76 L103.44,194.92 L91.84,195.80 L101.96,194.76 Z M87.34,196.97 L89.45,197.19 L75.77,198.29 L87.34,196.97 Z M78.42,198.72 L78.20,200.28 L76.34,199.55 L78.42,198.72 Z M70.51,200.70 L73.31,201.62 L68.21,202.69 L69.81,204.22 L63.07,201.88 L70.51,200.70 Z"/>
  <path class="de-state" id="DE-NW" data-state-id="DE-NW" data-state-name="Nordrhein-Westfalen" d="M178.54,262.73 L180.68,263.96 L181.00,270.09 L182.74,270.48 L194.09,269.66 L200.38,264.05 L204.92,265.03 L202.49,272.27 L199.08,272.96 L195.46,276.62 L201.80,279.48 L199.76,279.93 L200.21,282.25 L196.74,281.46 L198.63,285.03 L206.55,285.54 L205.26,287.25 L208.40,288.47 L207.47,290.60 L208.94,292.69 L207.63,293.77 L213.45,294.32 L213.22,296.65 L217.38,298.49 L216.82,300.83 L223.90,300.73 L222.26,301.59 L223.06,304.30 L219.25,307.09 L220.67,309.56 L219.16,312.52 L223.09,312.65 L216.95,314.44 L218.97,315.66 L210.44,323.18 L203.93,324.15 L203.83,321.20 L199.84,319.80 L192.50,322.05 L193.99,324.98 L195.68,324.95 L195.06,327.29 L180.66,327.99 L176.62,330.19 L173.02,333.65 L174.87,335.31 L182.70,333.89 L185.24,337.65 L181.00,341.76 L182.41,343.22 L171.27,343.86 L170.09,347.07 L172.21,348.51 L167.29,351.34 L167.49,354.28 L162.33,357.26 L156.38,356.00 L148.22,361.07 L150.92,364.04 L149.43,366.57 L143.74,366.33 L139.28,362.04 L139.26,358.04 L131.35,356.00 L132.48,353.44 L129.37,352.49 L125.78,353.88 L127.49,358.04 L121.56,359.52 L123.06,361.15 L121.49,362.47 L105.65,365.40 L103.37,369.92 L96.44,370.83 L95.98,369.37 L92.57,372.26 L87.23,372.04 L80.15,374.63 L80.29,376.11 L77.67,376.41 L78.64,379.78 L76.41,380.71 L72.89,378.49 L69.99,379.43 L73.19,386.14 L67.38,387.28 L65.57,385.34 L63.67,386.85 L61.72,384.34 L52.82,387.04 L53.36,385.56 L49.50,384.18 L50.16,387.72 L46.56,384.44 L48.54,380.69 L46.00,377.98 L39.98,377.49 L37.05,374.76 L43.07,371.02 L37.10,370.73 L37.14,368.64 L34.02,365.78 L28.91,364.85 L27.96,362.01 L25.20,360.89 L28.82,359.77 L28.40,358.04 L31.47,357.95 L31.99,353.70 L28.14,353.05 L28.98,350.20 L21.82,350.49 L20.00,346.38 L25.56,347.30 L28.15,343.92 L37.03,340.58 L35.50,339.40 L38.24,338.39 L32.49,339.31 L31.72,335.38 L40.44,328.50 L40.53,326.40 L39.51,319.93 L32.44,314.93 L34.02,311.79 L29.50,310.81 L30.15,308.60 L25.24,307.19 L27.55,305.68 L25.70,302.07 L31.15,300.19 L36.87,301.32 L33.36,298.83 L36.30,297.90 L50.97,302.42 L50.10,299.63 L54.53,300.78 L66.56,297.06 L69.42,298.26 L74.84,294.48 L74.67,292.78 L66.89,290.25 L67.03,288.34 L69.42,288.27 L70.88,285.68 L76.99,285.27 L83.77,279.55 L93.04,277.32 L100.95,277.54 L117.29,271.19 L118.56,268.65 L116.81,268.07 L118.80,265.53 L123.32,266.65 L124.82,269.73 L137.21,271.61 L140.08,274.85 L136.69,275.19 L138.17,276.84 L135.09,281.23 L142.16,283.34 L140.74,283.65 L141.26,286.00 L134.26,287.64 L136.13,289.71 L151.86,288.34 L156.05,284.89 L163.67,286.24 L170.28,281.91 L166.07,280.50 L167.44,274.56 L165.91,271.84 L158.52,269.44 L157.66,266.51 L165.28,266.99 L169.57,263.32 L178.54,262.73 Z"/>
  <path class="de-state" id="DE-RP" data-state-id="DE-RP" data-state-name="Rheinland-Pfalz" d="M129.37,352.49 L132.48,353.44 L131.35,356.00 L139.26,358.04 L139.28,362.04 L143.74,366.33 L147.61,366.15 L148.73,371.29 L150.64,372.36 L148.74,375.59 L143.94,374.38 L141.36,376.14 L140.54,378.49 L142.44,380.56 L139.84,382.52 L145.44,384.76 L148.62,390.44 L143.67,390.74 L145.07,392.84 L143.46,393.93 L141.09,392.68 L136.18,394.43 L134.93,396.35 L137.65,398.04 L137.40,400.17 L133.36,398.69 L128.55,402.97 L134.37,407.65 L155.36,404.45 L160.41,408.30 L160.56,412.70 L163.24,414.50 L162.64,416.20 L165.04,419.26 L168.31,419.16 L161.27,423.56 L165.08,429.49 L164.50,431.39 L167.26,435.88 L166.02,437.17 L169.59,437.67 L167.12,440.47 L169.05,440.40 L168.80,442.28 L166.29,443.83 L168.61,445.62 L163.03,448.98 L161.29,457.06 L154.44,464.48 L145.92,463.32 L137.17,459.53 L133.22,460.82 L129.39,459.08 L122.08,460.11 L114.14,457.21 L111.88,453.16 L104.09,453.04 L100.60,448.78 L105.93,446.11 L107.25,441.28 L100.66,440.19 L98.54,437.74 L101.63,435.54 L100.19,433.70 L101.70,431.97 L100.05,431.81 L99.52,429.09 L96.34,430.24 L85.82,426.02 L61.81,433.20 L48.74,431.63 L47.91,430.15 L50.96,427.69 L51.34,424.92 L56.58,421.63 L57.25,416.85 L50.27,416.20 L47.88,414.27 L45.00,415.32 L44.83,413.64 L40.72,412.09 L39.72,408.73 L36.54,408.60 L32.86,402.59 L35.59,396.12 L38.04,395.24 L36.95,392.58 L42.92,390.93 L44.37,387.92 L51.18,387.70 L48.85,384.40 L53.36,385.56 L52.82,387.04 L61.72,384.34 L63.67,386.85 L65.57,385.34 L67.38,387.28 L73.19,386.14 L69.99,379.43 L72.89,378.49 L76.41,380.71 L78.64,379.78 L77.67,376.41 L80.29,376.11 L80.15,374.63 L87.23,372.04 L92.57,372.26 L95.98,369.37 L96.44,370.83 L103.37,369.92 L105.65,365.40 L121.49,362.47 L123.06,361.15 L121.56,359.52 L127.49,358.04 L125.78,353.88 L129.37,352.49 Z"/>
  <path class="de-state" id="DE-SL" data-state-id="DE-SL" data-state-name="Saarland" d="M86.16,426.22 L96.34,430.24 L99.52,429.09 L100.05,431.81 L101.70,431.97 L100.19,433.70 L101.63,435.54 L98.54,437.74 L100.66,440.19 L107.25,441.28 L105.93,446.11 L100.60,448.78 L104.59,454.48 L95.26,456.18 L89.58,453.96 L87.30,456.33 L85.92,452.04 L79.72,450.06 L74.96,450.56 L76.12,452.58 L74.62,454.13 L69.15,453.38 L65.17,446.81 L59.36,442.90 L61.28,441.92 L57.66,438.09 L51.78,435.80 L47.41,436.34 L48.35,431.63 L61.81,433.20 L80.60,426.46 L86.16,426.22 Z"/>
  <path class="de-state" id="DE-ST" data-state-id="DE-ST" data-state-name="Sachsen-Anhalt" d="M346.81,234.87 L349.95,235.53 L350.28,237.22 L359.36,238.78 L357.93,240.24 L358.95,241.31 L381.24,244.05 L382.54,247.65 L380.07,248.88 L379.28,252.24 L381.33,253.74 L381.59,257.11 L377.76,257.28 L378.38,260.23 L376.22,262.94 L378.66,262.55 L377.58,264.01 L379.30,264.66 L381.43,263.00 L386.91,265.58 L383.69,269.12 L385.41,269.77 L384.30,272.28 L385.66,273.13 L382.06,278.34 L384.78,280.05 L380.21,283.15 L383.56,286.76 L392.38,291.68 L395.50,290.88 L398.85,293.65 L406.47,292.07 L412.90,294.88 L416.34,294.51 L416.62,296.40 L422.80,296.28 L423.42,298.17 L427.53,298.23 L427.12,299.90 L433.63,299.79 L432.20,301.24 L435.67,308.63 L426.61,313.11 L425.31,311.42 L421.83,313.05 L415.42,310.65 L412.28,312.70 L407.18,311.79 L404.37,314.27 L381.74,317.13 L379.30,319.19 L379.58,321.70 L376.49,322.92 L379.16,325.25 L379.04,330.47 L376.65,331.07 L379.92,336.95 L378.19,338.81 L380.22,338.83 L379.49,341.11 L381.85,341.77 L380.81,342.80 L384.51,343.88 L382.42,346.77 L385.11,347.22 L380.95,352.38 L378.63,350.27 L368.78,350.83 L366.43,349.36 L367.13,348.32 L361.06,345.78 L354.24,346.81 L348.88,342.81 L337.70,343.02 L337.75,338.39 L331.68,336.71 L338.18,332.29 L333.80,329.76 L333.49,327.44 L329.43,325.97 L310.49,325.60 L311.50,324.96 L309.14,324.77 L309.49,322.01 L307.46,320.96 L308.15,318.84 L304.43,316.31 L307.49,315.45 L306.82,314.18 L294.20,312.75 L290.06,306.29 L286.96,304.86 L286.92,300.97 L291.39,297.94 L288.95,295.81 L291.38,294.77 L287.55,293.67 L286.50,291.55 L289.98,291.80 L293.44,289.54 L309.50,289.28 L308.05,286.55 L313.79,284.93 L314.79,283.06 L312.06,281.37 L316.13,279.73 L310.22,273.41 L315.39,271.35 L307.31,266.49 L307.96,264.62 L311.50,264.63 L307.18,260.43 L309.68,257.26 L306.45,258.11 L301.40,251.49 L299.34,251.66 L297.66,244.24 L307.66,244.23 L310.49,241.11 L313.30,240.73 L329.16,242.97 L339.72,239.25 L340.47,235.66 L347.87,234.04 L346.81,234.87 Z"/>
  <path class="de-state" id="DE-SN" data-state-id="DE-SN" data-state-name="Sachsen" d="M417.46,311.10 L421.83,313.05 L425.31,311.42 L429.95,314.84 L434.02,315.32 L433.60,317.41 L437.25,319.56 L435.32,324.98 L437.02,324.80 L437.62,326.69 L440.64,327.37 L443.50,324.27 L446.85,325.16 L448.29,323.51 L456.16,328.28 L468.59,328.74 L479.50,326.63 L481.97,328.03 L485.67,323.86 L483.94,322.01 L487.20,322.01 L486.31,321.09 L489.83,318.34 L500.51,320.85 L513.45,316.79 L518.86,318.01 L520.27,315.25 L523.04,319.53 L532.75,321.28 L535.78,323.53 L536.01,329.15 L539.45,331.68 L540.00,335.63 L533.87,349.75 L527.65,355.39 L526.78,358.96 L515.82,357.50 L518.08,353.08 L512.88,353.60 L514.87,349.91 L509.61,348.30 L509.57,346.34 L508.94,348.10 L503.65,348.79 L497.79,346.19 L495.11,350.78 L503.85,352.53 L502.23,355.58 L495.55,355.70 L484.43,360.58 L478.53,360.39 L475.18,361.54 L475.36,363.84 L472.65,365.24 L455.52,365.53 L454.22,369.93 L450.77,372.15 L445.65,369.47 L442.92,372.98 L438.48,372.39 L435.50,377.59 L426.27,377.14 L425.98,380.50 L423.08,382.49 L414.67,379.97 L407.65,383.42 L402.54,382.20 L396.93,383.29 L395.63,386.18 L388.31,390.31 L386.24,395.79 L383.69,395.62 L383.79,393.09 L380.94,391.62 L382.00,390.35 L378.71,390.15 L378.66,387.67 L374.44,388.25 L366.29,385.79 L366.74,383.66 L361.60,380.73 L365.28,380.08 L366.03,378.17 L360.77,375.02 L368.67,369.73 L369.86,374.36 L376.99,373.08 L376.45,370.13 L383.60,369.70 L386.80,366.95 L381.41,363.60 L384.83,361.55 L382.51,359.25 L393.27,357.95 L395.69,355.08 L405.45,353.38 L402.91,349.16 L398.21,349.08 L398.92,347.63 L397.23,348.02 L396.96,345.51 L394.30,344.22 L380.81,342.80 L381.85,341.77 L379.49,341.11 L380.22,338.83 L378.19,338.81 L379.92,336.95 L376.65,331.07 L379.04,330.47 L379.16,325.25 L376.49,322.92 L379.58,321.70 L378.95,319.61 L381.74,317.13 L417.46,311.10 Z"/>
  <path class="de-state" id="DE-SH" data-state-id="DE-SH" data-state-name="Schleswig-Holstein" d="M314.88,148.74 L324.21,150.32 L328.72,156.26 L317.65,156.23 L316.30,153.79 L311.44,154.04 L311.92,151.02 L314.88,148.74 Z M163.84,119.85 L165.84,121.44 L160.80,124.20 L161.56,127.88 L165.12,129.29 L186.81,127.07 L210.22,130.52 L213.50,133.56 L220.65,131.36 L222.16,134.35 L232.28,129.38 L231.68,131.90 L242.39,133.84 L245.29,136.17 L248.85,135.75 L248.95,133.84 L251.66,134.82 L256.17,140.93 L253.23,139.29 L250.68,140.90 L250.40,143.47 L241.16,146.13 L238.35,149.11 L239.94,148.07 L250.68,143.71 L251.25,140.85 L256.13,141.07 L255.76,147.85 L245.14,152.56 L246.74,153.70 L261.43,151.55 L265.49,153.21 L263.76,154.45 L265.08,156.96 L262.60,158.12 L261.68,161.42 L264.64,160.47 L264.30,158.60 L267.13,155.62 L272.27,154.36 L288.44,158.50 L294.17,161.78 L298.93,161.40 L306.87,157.41 L318.19,156.91 L314.25,158.97 L316.23,167.85 L304.07,174.06 L299.85,173.63 L296.79,176.31 L298.84,179.27 L304.01,179.87 L304.56,183.39 L308.87,184.12 L305.32,184.67 L303.85,183.17 L297.76,185.82 L296.41,188.12 L297.18,193.17 L307.91,197.36 L306.58,202.60 L300.91,202.88 L300.96,206.46 L290.47,209.42 L289.47,213.58 L287.06,214.82 L272.30,210.70 L273.30,209.65 L263.74,205.50 L263.25,202.37 L266.14,202.15 L265.35,200.48 L267.13,199.84 L262.31,196.72 L265.48,194.41 L264.36,193.36 L258.96,194.43 L258.32,196.73 L254.32,196.54 L253.65,198.43 L248.91,198.24 L244.30,202.03 L240.59,199.55 L238.52,203.52 L235.68,203.17 L228.51,200.39 L226.23,196.04 L213.82,186.48 L194.65,184.61 L187.24,177.69 L195.44,177.08 L196.66,175.60 L193.36,171.60 L189.48,172.12 L186.55,169.14 L188.15,164.79 L191.97,164.32 L194.74,161.32 L189.64,163.83 L188.60,162.71 L188.75,164.16 L187.43,162.54 L177.35,163.61 L173.63,161.51 L175.04,158.75 L179.65,158.82 L175.30,157.15 L189.89,156.14 L198.81,152.21 L196.41,149.52 L192.28,152.86 L186.48,152.39 L186.42,150.83 L190.20,149.11 L191.24,145.45 L186.86,145.19 L188.50,144.19 L187.40,142.43 L179.74,137.67 L180.06,135.40 L174.22,128.86 L164.36,131.02 L158.34,129.48 L159.60,130.11 L157.77,130.82 L157.68,136.98 L156.61,136.43 L157.65,127.49 L163.84,119.85 Z M237.57,149.62 L228.40,150.18 L230.04,152.12 L232.88,150.06 L238.01,151.21 L237.19,149.87 L237.57,149.62 Z M164.10,119.54 L164.42,119.14 L167.01,119.75 L164.10,119.54 Z M179.99,147.47 L178.86,151.02 L174.16,150.04 L179.99,147.47 Z M171.36,136.20 L174.51,138.25 L172.90,140.51 L163.26,139.04 L164.64,136.91 L171.36,136.20 Z M172.02,146.20 L173.25,147.38 L169.62,146.51 L172.02,146.20 Z M167.76,152.04 L170.57,154.48 L167.42,155.15 L166.25,153.40 L167.76,152.04 Z M167.83,148.09 L169.37,148.95 L167.51,150.94 L167.83,148.09 Z M168.14,145.91 L169.18,147.41 L166.57,147.38 L168.14,145.91 Z M160.99,138.71 L159.98,139.97 L163.16,144.35 L157.33,141.23 L160.99,138.71 Z"/>
  <path class="de-state" id="DE-TH" data-state-id="DE-TH" data-state-name="Thüringen" d="M297.98,312.67 L307.49,314.82 L304.43,316.31 L308.15,318.84 L307.46,320.96 L309.49,322.01 L309.14,324.77 L311.50,324.96 L310.49,325.60 L329.43,325.97 L333.49,327.44 L333.80,329.76 L338.18,332.29 L331.68,336.71 L337.75,338.39 L338.75,339.86 L336.71,341.13 L338.71,343.44 L348.88,342.81 L354.24,346.81 L361.06,345.78 L367.13,348.32 L366.43,349.36 L368.78,350.83 L378.63,350.27 L380.61,352.37 L385.10,347.84 L382.42,346.77 L384.51,343.88 L394.30,344.22 L396.96,345.51 L397.23,348.02 L398.92,347.63 L398.21,349.08 L402.91,349.16 L405.44,353.59 L395.69,355.08 L393.27,357.95 L382.51,359.25 L384.83,361.55 L381.41,363.60 L383.46,363.61 L383.40,366.11 L386.40,367.79 L383.60,369.70 L379.54,369.28 L379.14,370.76 L376.79,369.93 L376.01,372.67 L377.35,372.88 L371.21,374.36 L369.21,373.74 L369.33,370.15 L366.97,370.37 L363.82,374.17 L360.77,375.02 L366.02,378.39 L364.68,378.60 L365.28,380.08 L361.60,380.73 L363.88,381.57 L360.18,383.06 L357.51,383.70 L355.24,382.01 L340.54,384.80 L338.26,381.42 L336.25,382.06 L334.61,380.38 L335.32,376.79 L330.67,376.38 L329.32,378.28 L325.00,378.93 L326.92,385.25 L325.20,390.94 L319.00,389.70 L319.97,387.38 L317.35,385.29 L313.43,386.56 L310.82,385.31 L310.83,386.57 L307.55,383.85 L303.96,383.65 L294.85,385.98 L295.54,388.09 L302.39,390.60 L302.40,392.29 L295.87,391.90 L295.54,394.65 L289.25,393.40 L288.54,387.25 L282.20,385.99 L280.18,383.24 L276.52,383.67 L277.17,381.98 L273.14,377.96 L261.45,373.94 L256.45,376.72 L257.77,374.37 L256.36,371.16 L259.09,370.75 L256.97,367.57 L251.44,367.93 L251.14,370.24 L247.00,369.58 L250.73,364.15 L249.71,362.69 L251.74,361.64 L251.37,359.33 L255.44,358.71 L255.41,356.82 L257.77,355.78 L255.02,353.67 L253.00,354.50 L253.65,352.82 L251.29,353.45 L251.27,352.18 L258.05,352.21 L255.30,350.30 L256.63,348.41 L265.76,349.09 L265.73,346.78 L262.69,346.13 L264.33,342.56 L261.27,341.28 L263.96,340.67 L266.35,342.58 L267.65,339.01 L258.50,336.43 L257.45,333.47 L252.69,333.02 L249.93,328.16 L257.29,324.41 L263.37,324.87 L262.34,324.23 L265.33,321.92 L271.38,321.33 L275.05,318.82 L275.66,316.06 L291.58,317.87 L290.50,314.13 L297.98,312.67 Z"/>
</svg>