<?xml version="1.0" encoding="UTF-8"?>
<svg xmlns="http://www.w3.org/2000/svg" xmlns:xlink="http://www.w3.org/1999/xlink" viewBox="0 0 462.8 132.6" xmlns:v="https://vecta.io/nano">
	<path d="M131.4 10.8v111M.2.2h462.2v132.2H.2V.2z" clip-path="url(#B)" fill="none" stroke="none"/>
	<path d="M11.5 11.4h109.8v109.8H11.5z" fill="#002849"/>
	<defs><path id="A" d="M0-.1h462.8v132.8H0z"/></defs>
	<clipPath id="B"><use xlink:href="#A"/></clipPath>
	<defs><path id="C" d="M0-.1h462.8v132.8H0z"/></defs>
	<clipPath id="D"><use xlink:href="#C"/></clipPath>
	<path d="M69.1 90.5v-1.1c2.9-.6 3.2-5.1 3.4-7.3.1-1.1.1-2.3.1-3.7V52.2c0-1.2 0-2.2-.3-3.5h7.4V66h6.9c6.9 0 10.1-5.7 10.1-11.6 0-5.8-3.4-11.3-10.2-11.7 0 0-9.9-.5-14.8.1-2.8.4-3.9 2-5 4.3-.4.9-.9 1.9-1.4 3.1L46.9 92.4 30.1 54.9c-.6-1.4-2.1-4.2-3.1-4.8-.6-.4-1.3-.6-1.9-.6v-.9h13.6v1c-.9.2-1.6.7-1.8 1.6-.3 1.5.8 4 1.5 5.4l10.3 23.1 13.7-31.8c.3-.6.6-1.4.9-2.3.4-1.2.7-2.5.6-3.2-.2-.9-.9-1.4-1.8-1.6v-1h24.7c11.5 0 17.9 6.7 17.9 14.6s-6.4 14.1-17.9 14.1h-7v9.9c0 1.4 0 2.6.1 3.6.1 1.6.3 4 1.2 5.7l.3.4c.5.6 1.1 1.1 1.9 1.3v1.1H69.1z" clip-path="url(#D)" fill="#ffffff"/>
	<defs><path id="E" d="M0-.1h462.8v132.8H0z"/></defs>
	<clipPath id="F"><use xlink:href="#E"/></clipPath>
	<path d="M212.1 34.9c-9 0-11.6 8.1-11.6 14.6 0 6.6 2.6 14.6 11.6 14.6 9.1 0 11.7-8 11.7-14.6 0-6.5-2.6-14.6-11.7-14.6m17.7 14.6c0 9.2-8 16.8-17.7 16.8s-17.7-7.6-17.7-16.8 8-16.8 17.7-16.8 17.7 7.6 17.7 16.8" clip-path="url(#F)" fill="#002849"/>
	<defs><path id="G" d="M0-.1h462.8v132.8H0z"/></defs><clipPath id="H"><use xlink:href="#G"/></clipPath><path d="M191.1 34.8c-2.2 0-3.4.3-4.2.9-.4.3-.7.8-1 1.4l-1.1 2.3-11.7 27h-.8l-11.7-27c-.4-.9-.7-1.7-1.1-2.3a5.02 5.02 0 0 0-1-1.4c-.8-.7-2-.9-4.2-.9v-1.2H170v1.2c-4.4 0-5.3 1.1-4.1 4l8.3 18.9 8.2-18.9c1.2-2.8.3-4-4.1-4v-1.2H191v1.2z" clip-path="url(#H)" fill="#002849"/>
	<defs><path id="I" d="M0-.1h462.8v132.8H0z"/></defs><clipPath id="J"><use xlink:href="#I"/></clipPath><path d="M267 57.1V40.9c0-5.3-.6-6.1-5-6.1v-1.2h12.5v1.2c-4.3 0-5 .8-5 6.1v25.4h-1.6l-21.4-26.5V58c0 5.3.7 6.2 5 6.2v1.2H239v-1.2c4.3 0 5-.9 5-6.2V40.9c0-5.3-.6-6.1-5-6.1v-1.2h9l19 23.5z" clip-path="url(#J)" fill="#002849"/>
	<defs><path id="K" d="M0-.1h462.8v132.8H0z"/></defs><clipPath id="L"><use xlink:href="#K"/></clipPath><path d="M310.8 49.5c4.6 0 6.6-3.1 6.6-6.9s-2.1-6.9-6.6-6.9h-3.7v13.8h3.7zm.9-15.9c7.4 0 11.4 4 11.4 9s-4.1 8.9-11.4 8.9h-4.6v6.6c0 5.3.6 6.2 5 6.2v1.2h-15.2v-1.2c4.3 0 5-.9 5-6.2V40.9c0-5.3-.6-6.1-5-6.1v-1.2h14.8z" clip-path="url(#L)" fill="#002849"/>
	<defs><path id="M" d="M0-.1h462.8v132.8H0z"/></defs>
	<clipPath id="N"><use xlink:href="#M"/></clipPath>
	<path d="M348.2 34.9c-9 0-11.6 8.1-11.6 14.6 0 6.6 2.6 14.6 11.6 14.6 9.1 0 11.7-8 11.7-14.6 0-6.5-2.6-14.6-11.7-14.6m17.7 14.6c0 9.2-8 16.8-17.7 16.8s-17.7-7.6-17.7-16.8 8-16.8 17.7-16.8 17.7 7.6 17.7 16.8" clip-path="url(#N)" fill="#002849"/>
	<defs><path id="O" d="M0-.1h462.8v132.8H0z"/></defs><clipPath id="P"><use xlink:href="#O"/></clipPath><path d="M408.4 65.4v-1.2c4.3 0 5-.9 5-6.2V40.9c0-5.3-.6-6.1-5-6.1v-1.2h15.3v1.2c-4.3 0-5 .8-5 6.1v16.4c0 5.3.6 6.1 5 6.1h5.3c4.8 0 5.3-1.2 6-4l.3-1.1h1.2l-.5 7.1h-27.6z" clip-path="url(#P)" fill="#002849"/>
	<defs><path id="Q" d="M0-.1h462.8v132.8H0z"/></defs><clipPath id="R"><use xlink:href="#Q"/></clipPath><path d="M374.6 65.4v-1.2c4.3 0 5-.9 5-6.2V40.9c0-5.3-.6-6.1-5-6.1v-1.2h15.3v1.2c-4.3 0-5 .8-5 6.1v16.4c0 5.3.6 6.1 5 6.1h5.3c4.8 0 5.3-1.2 6-4l.3-1.1h1.2l-.5 7.1h-27.6z" clip-path="url(#R)" fill="#002849"/>
	<path d="M210.6 105.2l-2.6-6.5c-.5-1.3-1.2-2.2-2.6-2.4 2.2-.3 4.1-1.9 4.1-4.2 0-3.4-2.8-4.7-5.7-4.7h-5.9v17.7h2.8v-7.8h1.4c2 0 2.5.5 3.2 2.3l2.2 5.5 3.1.1zm-4.1-12.8c0 2.3-2.1 2.9-4 2.9h-1.8v-5.7h1.9c2.1 0 3.9.5 3.9 2.8h0zm22.5 12.8V103h-7.6v-5.8h7v-2.1h-7v-5.4h7.3v-2.2h-10.2v17.7H229zm23 0l-7-17.7h-3.6l-6.9 17.7h2.8l1.8-4.7h8.2l1.7 4.7h3zm-5.4-6.7h-6.8l3.4-8.9 3.4 8.9zm22.1 6.7v-2.4h-7.4V87.5h-2.9v17.7h10.3zm25.3 0V103h-7.6v-5.8h7v-2.1h-7v-5.4h7.3v-2.2h-10.2v17.7H294zm19-4.9c0-2.6-1.8-3.8-3.9-4.8l-1.9-.9c-1.3-.6-2.7-1.3-2.7-2.7 0-2 2-2.5 3.7-2.5 1.2 0 2.6.2 3.7.7l.2-2.3c-1.3-.4-2.6-.6-4-.6-3 0-6.5 1.3-6.5 4.8 0 2.3 1.5 3.5 3.4 4.4l1.8.9c1.5.7 3.2 1.5 3.2 3 0 2.1-1.7 2.9-3.7 2.9-1.6 0-3.1-.3-4.5-1.1l-.1 2.5c1.5.6 3.2.8 4.8.8 3.4.1 6.5-1.5 6.5-5.1h0zm19.6-10.4v-2.4h-13.7v2.4h5.4v15.3h2.9V89.9h5.4zm21.3 15.3l-7-17.7h-3.6l-6.9 17.7h2.8l1.8-4.7h8.2l1.7 4.7h3zm-5.4-6.7h-6.8l3.4-8.9 3.4 8.9zm22.9-8.6v-2.4h-13.7v2.4h5.4v15.3h2.9V89.9h5.4zm18.2 15.3V103H382v-5.8h7v-2.1h-7v-5.4h7.3v-2.2h-10.2v17.7h10.5z" fill="#a8a8a7"/>
</svg>